<!--?xml version="1.0" encoding="utf-8"?-->
<!-- Generator: Adobe Illustrator 25.2.3, SVG Export Plug-In . SVG Version: 6.00 Build 0)  -->
<svg version="1.1" id="_x34_" xmlns="http://www.w3.org/2000/svg" xmlns:xlink="http://www.w3.org/1999/xlink" x="0px" y="0px" viewBox="0 0 800 562.1" style="enable-background:new 0 0 800 562.1;" xml:space="preserve">
<style type="text/css">
	.stblack{fill:#000000;}
	.st0{fill:#FFFFFF;}
</style>
<g>
	<path class="stblack" d="M407.3,465.6c16.9-2.8,67.7,67,67.7,67s-18-85.8,13.7-80.7c16.6,2.7,39.5,27.5,39.5,27.5s-5.2-27.1,7.7-31.8
		c9.4-3.4,114.1,53.9,114.1,53.9s-34.7-65.5-39.5-84c-4.8-18.5,42.9,5.2,42.9,5.2c-13.1-14-18.9-22.1-24-37.1
		c-3.6-10.5,53.6-1,53.6-1s-32.4-22-33.6-38.9c-1.2-16.9,49.6-30.1,49.6-30.1s-28.8-6.5-29.7-20.1C667.9,272,780,247.1,780,247.1
		S674.8,226,653.3,213c-21.5-13,32.8-73.6,32.8-73.6s-37.9,35-61.7,30.7c-23.8-4.4,22.3-65,22.3-65s-47.1,38.3-62.6,31.7
		c-15.5-6.5,7.8-122.7,7.8-122.7s-55.5,100.8-76.9,99.7c-21.5-1.1-3.2-47.1-3.2-47.1s-19.7,39.5-35.2,38.4
		c-15.5-1.1-27.1-51.2-27.1-51.2c-11.8,38.4-25.6,60.1-38.7,48.2c-13.1-12-25.3-40.5-31.9-53.3c1.2,8.7-1.4,61.8-25.2,55.3
		c-23.8-6.5-71.1-81.5-71.1-81.5s28.9,108.2-4.5,101.7S214,70.7,214,70.7s32.8,69.8,14.9,75.3c-17.9,5.4-73.3-46.1-73.3-46.1
		s41.5,58,19.7,78.6C159.1,193.9,20,166.9,20,166.9s112.4,63.1,109.9,79c-3.6,22.8-46,39.9-46,39.9s55.1-7.7,56.3,10.8
		C141.4,315,71.4,330,74.9,330s68.2,3.6,75.5,13.7c7.2,9.8-22.6,30-36.1,41.2c0,0,51.4-14.5,54.9,9.4S145,451.9,111,489.6
		c79-27.5,102.4-42.7,120.2-34.3c19,8.9,8.6,62.2,8.6,62.2s42.7-54.4,58.3-49.7c23.9,7.1,13.8,80.3,13.8,80.3s27.4-76.9,44.6-75.5
		c17.2,1.3,17.2,34.3,17.2,34.3S386.7,469,407.3,465.6z" style="opacity: 0;"></path>
	<path class="st0" d="M407.7,451.3c16.9-2.8,59.4,57.4,59.4,57.4s-27.2-75.6,15.9-70c16.7,2.2,32,16.5,32,16.5s-4.8-15.2,3.6-26.1
		c8.3-10.9,112.9,52.2,112.9,52.2s-29.6-57.9-34.3-76.4c-4.8-18.5,30.7-1.5,30.7-1.5s-11.8-12.3-15.4-22.9
		c-3.6-10.5,43.7-5.2,43.7-5.2s-20.1-15.3-21.3-32.2c-1.2-16.9,42.3-27.5,42.3-27.5s-25-4.5-25.9-18.1
		c-1.5-23.4,98.5-50.1,98.5-50.1s-85.8-13-107.3-26.1s8.3-48.9,8.3-48.9s-11.9,13-35.8,8.7c-23.8-4.4,0-43.5,0-43.5
		s-23.8,19.6-39.3,13c-15.5-6.5,0-96.8,0-96.8s-41.7,73.9-63.2,72.9c-21.5-1.1-13.1-28.3-13.1-28.3s-8.3,21.7-23.8,20.7
		c-15.5-1.1-26.2-45.7-26.2-45.7c-11.8,38.4-28.6,58.7-41.7,46.8c-13.1-12-27.4-54.4-26.2-45.7c1.2,8.7-4.8,48.9-28.6,42.4
		c-23.8-6.5-57.7-63.1-57.7-63.1s23.6,93.5-9.8,86.9s-50.1-31.5-50.1-31.5s21.5,47.8,3.6,53.3c-17.9,5.4-57.2-30.4-57.2-30.4
		s33.4,51.1,4.8,59.8c-28.6,8.7-121.6-7.6-121.6-7.6s87.1,46.1,84.6,62c-3.6,22.8-35.8,32.6-35.8,32.6s50.1-2.2,51.2,16.3
		c1.2,18.5-65.4,30.4-61.9,30.4c3.5,0,56.4,4.1,63.8,14.2c7.2,9.8-14.1,22.7-27.6,34c0,0,45.7-11.8,49.3,12.2
		c3.6,23.9-21.5,51-55.5,88.7c71.1-34.4,96.5-49.1,114.3-40.7c19,8.9,6,56,6,56s33.6-43.8,49.2-39.1c23.9,7.1,16.3,66.5,16.3,66.5
		s21.4-61.1,38.7-59.8c17.2,1.3,20.1,24.9,20.1,24.9S387,454.7,407.7,451.3z"></path>
</g>
</svg>
