<!--?xml version="1.0" encoding="utf-8"?-->
<!-- Generator: Adobe Illustrator 25.2.3, SVG Export Plug-In . SVG Version: 6.00 Build 0)  -->
<svg version="1.1" id="_x31__1_" xmlns="http://www.w3.org/2000/svg" xmlns:xlink="http://www.w3.org/1999/xlink" x="0px" y="0px" viewBox="0 0 800 598.112" style="enable-background:new 0 0 800 598.112;" xml:space="preserve">
<style type="text/css">
	.stblack{fill:#000000;}
	.st0{fill:#FFFFFF;}
</style>
<g>
	<path class="st0" d="M652.965,54.006c0,0-57.864,56.845-86.103,58.191c-28.237,1.344-20.301-52.719-20.301-52.719
		s-21.639,37.632-44.498,38.978c-17.669,1.039-13.603-65.11-7.215-79.354c-11.607,14.402-41.365,67.812-50.497,67.812
		c-10.762,0-26.877-50.809-26.877-50.809s-29.47,62.493-48.295,59.804c-18.826-2.689-48.973-59.804-48.973-59.804
		s0.689,57.225-8.72,65.293c-9.416,8.069-56.493-21.968-56.493-21.968s17.483,32.271,9.415,48.408
		c-8.068,16.136-123.333-62.323-123.333-62.323s52.685,92.841,39.241,119.735c-13.45,26.893-121.691,2.99-121.691,2.99
		s88.745,40.575,87.4,63.435c-1.342,22.858-121.018,55.129-121.018,55.129c92.492,12.388,150.601,16.138,146.57,33.618
		c-4.036,17.48-103.544,55.131-103.544,55.131c102.197-21.516,118.399-6.875,109.453,11.545
		c-3.715,7.649-105.418,77.204-105.418,77.204s119.636-47.896,126.358-26.381c5.626,17.992-36.03,63.414-52.611,75.398
		c21.088-12.426,104.73-52.664,106.089-38.115c0.906,9.746-8.2,26.107-8.2,26.107s51.207-26.104,62.612-22.744
		c8.902,2.622,3.846,75.25,0.97,80.516c3.534-6.013,80.396-68.422,97.818-58.742c18.112,10.061,8.954,48.665,8.954,48.665
		s30.644-49.808,56.192-48.465c25.548,1.344,51.067,34.044,51.067,34.044s2.201-43.907,29.915-43.191
		c17.088,0.442,93.166,59.834,93.166,59.834s-48.791-63.869-35.346-75.97c13.45-12.102,38.997,9.413,38.997,9.413
		s-22.86-29.584-8.069-41.685c14.792-12.102,118.907,12.043,118.907,12.043s-85.833-63.598-73.186-91.822
		c7.495-16.73,61.058-35.346,61.058-35.346s-48.071-24.929-50.759-43.079c-2.257-15.249,60.026-51.855,79.188-60.768
		c-20.55,3.651-91.845,6.396-95.326-9.822c-4.034-18.826,37.651-45.953,37.651-45.953s-63.199,13.212-68.575,0
		c-5.381-13.214,51.097-65.655,51.097-65.655s-64.546,48.406-83.371,34.962C597.834,144.099,652.965,54.006,652.965,54.006z"></path>
	<path class="stblack" d="M649.962,52.943c-18.758,18.385-43.101,41.103-68.695,51.757c-6.162,2.564-13.664,4.802-19.836,1.041
		c-5.89-3.59-8.276-10.964-9.554-17.335c-2.029-10.125-1.863-20.993-0.398-31.199c0.761-5.299-7.853,0.659-8.84,2.358
		c-5.954,10.264-35.79,50.936-44.797,26.688c-4.132-11.121-3.845-24.5-3.338-36.156c0.45-10.383,0.826-22.487,4.913-32.215
		c2.712-6.455-7.068-0.492-8.488,1.307c-8.022,10.157-14.594,21.523-21.632,32.363c-4.183,6.443-8.399,12.873-12.88,19.116
		c-2.248,3.13-6.242,10.774-10.068,12.148c2.009-0.722-0.26-0.383-1.433-1.823c-1.453-1.786-2.999-3.366-4.29-5.308
		c-3.586-5.387-6.29-11.42-8.806-17.359c-3.519-8.307-6.664-16.808-9.403-25.405c-1.433-4.492-8.651,2.58-9.513,4.402
		c-4.335,9.155-9.225,18.099-14.53,26.723c-4.665,7.583-15.628,29.314-26.77,27.179c-6.224-1.193-11.779-7.794-15.748-12.249
		c-5.4-6.061-10.156-12.697-14.655-19.443c-5.886-8.824-11.41-17.953-16.377-27.33c-2.016-3.808-9.593,4.56-9.567,7.085
		c0.095,8.655-0.141,17.327-0.638,25.967c-0.398,6.934-0.949,13.885-2.023,20.752c-0.406,2.604-0.857,5.218-1.512,7.773
		c-0.31,1.206-2.231,4.948-2.051,6.013c-0.381-2.268,3.702,0.009,1.027-1.5c-0.755-0.427-2.801-0.199-3.724-0.352
		c-2.618-0.434-5.199-1.342-7.691-2.232c-5.966-2.132-11.711-4.911-17.335-7.814c-7.624-3.934-15.113-8.201-22.353-12.806
		c-3.089-1.965-10.292,5.066-8.588,8.244c2.67,4.982,4.889,10.242,6.767,15.569c1.465,4.153,2.719,8.402,3.525,12.735
		c0.925,4.973-0.039,9.572,0.252,14.409c0.01,0.174-0.72,2.208-0.652,2.263c-0.163-0.131,3.838-2.121,3.168-2.759
		c-0.217-0.205-1.019,0.124-1.31-0.001c-1.503-0.648-3.875-0.572-5.531-1.022c-5.331-1.451-10.467-3.693-15.475-5.994
		c-26.553-12.208-51.514-28.243-76.005-44.097c-6.51-4.214-13.004-8.46-19.416-12.822c-3.307-2.25-11.346,4.091-9.243,7.804
		c16.075,28.38,31.899,59.401,39.022,91.381c1.567,7.037,3.903,16.857,1.03,23.886c-2.192,5.366-9.068,6.39-14.226,7.348
		c-19.373,3.602-40.247,1.174-59.612-1.305c-13.424-1.719-26.852-3.922-40.078-6.829c-3.232-0.711-12.244,6.709-7.933,8.683
		c11.353,5.203,22.486,10.949,33.413,16.988c16.709,9.236,36.04,19.381,48.269,34.484c3.008,3.715,6.441,8.659,3.401,13.179
		c-3.541,5.26-12.048,8.748-17.454,11.466c-18.396,9.25-38.028,16.088-57.573,22.452c-12.485,4.066-25.06,7.926-37.74,11.353
		c-2.304,0.623-10.726,8.008-5.026,8.769c30.733,4.1,61.583,7.48,92.245,12.09c14.911,2.242,35.214,3.33,48.159,12.1
		c10.708,7.254-2.646,13.837-9.2,17.811c-15.946,9.667-33.239,17.256-50.346,24.6c-11.246,4.829-22.581,9.492-34.027,13.831
		c-2.734,1.036-9.197,9.503-2.71,8.15c27.869-5.812,57.574-12.374,86.258-10.234c7.504,0.56,22.435,2.242,22.335,12.66
		c-0.017,1.701-0.664,3.24-1.184,4.816c-0.572,1.73,0.8-0.285-1.276,1.485c-5.381,4.584-10.954,8.905-16.607,13.146
		c-16.568,12.427-33.538,24.329-50.507,36.198c-11.151,7.799-22.332,15.558-33.563,23.241c-3.003,2.053-7.244,9.804-0.2,6.988
		c22.409-8.958,45.343-16.953,68.575-23.476c13.765-3.866,28.796-8.407,43.256-7.822c3.425,0.139,8.29,0.472,10.178,3.873
		c3.164,5.699-2.364,15.255-5.044,20.047c-10.226,18.279-26.112,36.907-43.018,49.407c-4.276,3.161-6.162,10.512,1.091,6.276
		c21.723-12.687,45.262-23.34,68.746-32.281c5.701-2.17,11.478-4.209,17.375-5.782c3.225-0.859,8.419-2.788,11.794-1.815
		c7.978,2.303-2.494,21.128-5.14,25.948c-1.708,3.113,1.667,3.728,3.825,2.632c9.965-5.069,20.144-9.788,30.466-14.086
		c6.948-2.894,14.066-5.806,21.426-7.484c4.477-1.02,7.662-2.137,9.362,2.595c4.362,12.147,2.39,28.504,1.828,41.076
		c-0.313,7.027-0.776,14.056-1.501,21.054c-0.372,3.586-0.557,9.235-1.825,11.984c-2.795,6.058,7.011,0.941,8.489-1.307
		c-0.501,0.763,0.665-0.719,1.285-1.327c1.71-1.675,3.552-3.229,5.366-4.791c5.231-4.508,10.632-8.825,16.101-13.042
		c13.506-10.418,27.605-20.555,42.686-28.586c10.384-5.529,23.745-13.04,31.045,0.584c6.082,11.35,4.264,27.33,1.448,39.442
		c-1.208,5.204,7.892-0.826,8.84-2.358c9.505-15.361,22.941-34.863,40.04-42.112c21.35-9.051,46.678,16.441,58.677,31.681
		c2.412,3.063,9.4-3.634,9.541-6.172c0.575-10.491,2.976-25.01,10.829-32.591c10.252-9.898,26.197,1.99,35.438,7.634
		c23.428,14.308,45.641,30.896,67.272,47.771c3.107,2.422,11.755-4.507,9.243-7.804c-11.077-14.532-21.564-29.956-29.878-46.241
		c-2.215-4.339-11.467-21.779-5.898-24.761c8.166-4.373,24.225,7.293,30.186,12.249c3.055,2.54,11.732-4.547,9.241-7.804
		c-3.283-4.296-6.175-9.035-8.485-13.917c-1.865-3.94-3.496-8.187-4.017-12.542c-0.216-1.81-0.394-3.744,0.034-5.542
		c0.163-1.369,0.703-2.57,1.62-3.602c-1.119,0.696-1.184,0.798-0.196,0.307c4.285-2.1,10.69-1.46,15.306-1.396
		c7.839,0.11,15.673,0.87,23.453,1.794c25.034,2.973,49.977,7.819,74.535,13.501c2.629,0.608,11.874-5.804,8.588-8.244
		c-17.166-12.746-33.604-26.955-48.358-42.426c-9.258-9.709-19.528-20.809-24.085-33.683c-5.012-14.154,5.118-20.204,16.521-26.494
		c11.808-6.514,24.474-11.915,37.205-16.363c1.866-0.652,10.193-6.423,5.934-8.641c-9.587-4.996-18.919-10.719-27.656-17.079
		c-6.963-5.069-26.833-18.38-20.79-28.968c6.823-11.96,23.243-20.806,34.4-28.022c12.143-7.857,24.67-15.414,37.767-21.585
		c2.438-1.149,9.451-9.297,2.711-8.149c-13.093,2.23-26.685,2.594-39.936,2.621c-14.256,0.029-30.011,0.122-43.615-4.709
		c-26.174-9.295,13.612-39.149,24.455-46.25c2.013-1.318,7.627-8.726,1.421-7.438c-8.919,1.852-68.486,13.487-65.665-2.398
		c1.016-5.717,6.128-11.413,9.562-15.85c5.068-6.545,10.651-12.701,16.313-18.731c7.157-7.62,14.528-15.076,22.183-22.198
		c5.29-4.919,2.123-8.696-3.679-4.357c1.189-0.889-0.073,0.056-1.071,0.773c-2.13,1.532-4.273,3.048-6.434,4.538
		c-6.158,4.246-12.434,8.322-18.844,12.179c-12.242,7.367-30.113,19.286-45.211,17.47c-25.014-3.009,8.877-62.727,14.164-72.813
		c5.081-9.692,10.385-19.294,16.09-28.634c4.1-6.713-5.606-3.482-7.841,0.177c-15.12,24.754-30.133,51.38-38.338,79.314
		c-2.761,9.406-7.087,26.213,5.643,30.199c14.831,4.644,34.38-6.963,46.722-13.761c13.484-7.426,26.471-15.863,38.8-25.084
		c-1.226-1.452-2.453-2.904-3.679-4.357c-16.766,15.596-33.867,32.217-46.837,51.171c-3.808,5.565-12.003,16.951-5.047,23.006
		c8.022,6.983,25.527,4.075,34.988,3.165c11.475-1.102,22.96-2.864,34.249-5.209c0.474-2.48,0.947-4.958,1.422-7.438
		c-10.906,7.141-21.466,15.631-30.125,25.391c-6.647,7.493-19.336,24.413-7.439,32.771c11.931,8.381,31.821,7.728,45.659,7.967
		c16.004,0.276,32.348-0.222,48.157-2.916c0.903-2.716,1.809-5.433,2.712-8.15c-15.515,7.311-30.408,16.34-44.662,25.84
		c-13.14,8.756-29.048,18.756-37.425,32.592c-7.939,13.11,5.688,24.529,15.342,32.143c10.4,8.201,21.861,15.344,33.604,21.463
		c1.977-2.88,3.956-5.761,5.934-8.641c-11.979,4.186-23.795,9.105-35.103,14.859c-11.869,6.042-30.319,15.011-33.648,29.436
		c-2.824,12.233,6.217,24.967,13.244,34.052c10.592,13.696,23.384,25.713,36.423,37.043c7.972,6.926,16.142,13.682,24.626,19.98
		c2.861-2.748,5.725-5.496,8.588-8.244c-21.823-5.049-43.916-9.277-66.092-12.411c-18.104-2.559-58.269-11.959-65.865,12.994
		c-3.838,12.615,5.118,27.6,12.533,37.302c3.081-2.602,6.162-5.203,9.241-7.804c-9.26-7.699-22.977-16.187-35.494-13.044
		c-12.613,3.166-17.419,13.38-14.045,25.119c6.488,22.572,22.564,43.812,36.645,62.287c3.081-2.602,6.162-5.203,9.243-7.804
		c-18.666-14.56-37.818-28.621-57.586-41.646c-10.061-6.628-21.478-15.285-33.405-18.176c-12.714-3.08-25.1,5.983-31.649,16.159
		c-6.187,9.616-9.357,21.82-9.981,33.192c3.181-2.057,6.36-4.114,9.54-6.172c-14.558-18.487-41.29-42.65-66.431-31.577
		c-20.997,9.247-37.574,30.926-49.37,49.989c2.947-0.786,5.893-1.572,8.84-2.358c3.71-15.967,6.084-56.273-20.186-51.349
		c-12.081,2.265-23.504,9.356-33.803,15.728c-13.196,8.165-25.797,17.34-37.995,26.921c-7.741,6.079-18.106,12.737-23.628,21.136
		c2.829-0.435,5.66-0.871,8.489-1.307c4.78-10.362,3.658-25.88,4.101-36.923c0.338-8.395,0.51-16.821,0.131-25.219
		c-0.256-5.63-0.057-13.102-2.838-18.229c-5.149-9.486-25.456,0.777-32.296,3.442c-12.431,4.843-24.612,10.477-36.505,16.524
		c1.276,0.877,2.55,1.755,3.825,2.632c3.301-6.015,14.202-25.822,6.415-31.336c-6.758-4.786-22.131,2.025-28.626,4.265
		c-27.794,9.578-55.395,22.328-80.791,37.161c0.364,2.092,0.726,4.184,1.091,6.276c16.881-12.48,31.63-29.107,43.622-46.25
		c5.353-7.652,22.443-31.682,9.851-39.899c-9.849-6.425-27.963-1.035-38.257,1.254c-18.603,4.138-36.826,10.044-54.808,16.308
		c-11.395,3.969-22.751,8.103-33.956,12.583c-0.067,2.329-0.133,4.659-0.2,6.988c29.795-20.381,59.575-40.911,88.39-62.66
		c8.688-6.558,21.159-13.671,23.268-25.333c1.979-10.927-7.666-15.86-16.936-17.65c-11.718-2.264-24.021-1.548-35.824-0.483
		c-20.69,1.866-41.197,5.702-61.512,9.939c-0.903,2.716-1.807,5.434-2.71,8.15c30.431-11.532,61.911-23.935,89.464-41.41
		c7.166-4.544,24.412-15.074,19.003-25.944c-5.752-11.559-29.494-13.331-40.166-15.2c-35.604-6.236-71.707-9.738-107.523-14.517
		c-1.676,2.923-3.353,5.845-5.029,8.768c33.777-9.129,68.687-19.58,99.81-35.749c9.714-5.046,30.564-15.38,27.933-29.348
		c-1.432-7.597-8.528-13.813-14.098-18.534c-8.282-7.02-17.508-12.971-26.784-18.575c-15.245-9.209-31.115-17.579-47.311-25
		c-2.644,2.894-5.289,5.789-7.933,8.683c12.723,2.798,25.629,4.9,38.534,6.641c21.248,2.867,43.891,5.467,65.153,1.409
		c15.884-3.032,28.955-12.175,29.11-29.469c0.194-21.95-10.275-44.579-19.038-64.2c-6.887-15.421-14.393-30.649-22.719-45.35
		c-3.081,2.602-6.162,5.203-9.243,7.804c20.769,14.125,42.019,27.638,63.736,40.252c13.788,8.008,27.934,16.212,42.947,21.726
		c8.592,3.155,19.086,5.691,25.083-3.455c9.681-14.763-1.274-38.741-8.604-52.412c-2.861,2.748-5.724,5.496-8.588,8.244
		c9.225,5.865,18.828,11.278,28.704,15.959c9.928,4.705,24.47,12.166,34.175,3.288c9.207-8.423,9.333-25.384,10.193-36.797
		c0.832-11.063,1.174-22.205,1.054-33.299c-3.19,2.362-6.378,4.723-9.567,7.085c6.143,11.599,13.069,22.895,20.68,33.585
		c6.972,9.793,19.787,29.699,34.344,26.435c14.752-3.309,25.677-20.612,33.208-32.337c6.745-10.502,12.883-21.518,18.227-32.804
		c-3.171,1.467-6.342,2.935-9.513,4.402c3.363,10.552,7.285,20.994,11.891,31.065c3.447,7.536,9.867,24.792,20.928,19.914
		c11.677-5.151,20.011-21.067,26.675-31.092c8.868-13.34,16.805-27.575,26.744-40.163c-2.829,0.436-5.66,0.871-8.489,1.307
		c-5,11.905-5.469,26.262-5.77,38.97c-0.279,11.778-1.398,30.358,6.895,40.081c8.941,10.482,27.549-3.525,34.713-9.899
		c9.567-8.514,17.932-18.998,24.365-30.084c-2.946,0.787-5.893,1.572-8.84,2.358c-2.264,15.778-4.348,47.585,14.823,53.99
		c11.788,3.938,25.671-3.905,35.504-9.594c14.277-8.257,27.407-18.624,39.96-29.27c8.246-6.993,16.314-14.234,24.036-21.803
		C661.808,49.345,653.885,49.098,649.962,52.943z" style="opacity: 0;"></path>
</g>
</svg>
